<svg xmlns="http://www.w3.org/2000/svg" viewBox="0 0 28.16 50"><defs><style>.cls-1{fill:#fff;}</style></defs><title>Asset 2</title><g id="Layer_2" data-name="Layer 2"><g id="Layer_1-2" data-name="Layer 1"><rect class="cls-1" y="45.03" width="28.16" height="4.97"/><polygon class="cls-1" points="0 33.06 14.08 19.07 17.5 22.36 0 39.79 0 33.06"/><polygon class="cls-1" points="0 23.52 14.08 9.54 17.5 12.83 0 30.25 0 23.52"/><polygon class="cls-1" points="0 13.99 14.08 0 17.5 3.29 0 20.72 0 13.99"/><polygon class="cls-1" points="28.16 39.38 28.16 32.91 18.85 23.9 15.6 27.11 28.16 39.38"/><polygon class="cls-1" points="28.16 29.95 28.16 23.48 18.85 14.47 15.6 17.69 28.16 29.95"/><polygon class="cls-1" points="28.16 19.97 28.16 13.5 18.85 4.49 15.6 7.7 28.16 19.97"/></g></g></svg>